<svg width="200" height="200" viewBox="0 0 200 200" xmlns="http://www.w3.org/2000/svg">
  <!-- Earth Hexagon Icon -->
  <defs>
    <radialGradient id="earthBg" cx="50%" cy="50%" r="70%">
      <stop offset="0%" style="stop-color:#66bb6a;stop-opacity:1" />
      <stop offset="30%" style="stop-color:#4caf50;stop-opacity:1" />
      <stop offset="70%" style="stop-color:#388e3c;stop-opacity:1" />
      <stop offset="100%" style="stop-color:#2e7d32;stop-opacity:1" />
    </radialGradient>
    <linearGradient id="earthFrame" x1="0%" y1="0%" x2="100%" y2="100%">
      <stop offset="0%" style="stop-color:#ffd54f;stop-opacity:1" />
      <stop offset="50%" style="stop-color:#ffb300;stop-opacity:1" />
      <stop offset="100%" style="stop-color:#ff8f00;stop-opacity:1" />
    </linearGradient>
    <filter id="earthGlow">
      <feGaussianBlur stdDeviation="3" result="coloredBlur"/>
      <feMerge> 
        <feMergeNode in="coloredBlur"/>
        <feMergeNode in="SourceGraphic"/>
      </feMerge>
    </filter>
  </defs>
  
  <!-- Outer hexagon frame -->
  <polygon points="100,20 160,60 160,140 100,180 40,140 40,60" 
           fill="url(#earthFrame)" stroke="#d4af37" stroke-width="3"/>
  
  <!-- Inner hexagon frame -->
  <polygon points="100,30 150,65 150,135 100,170 50,135 50,65" 
           fill="#8d6e63" stroke="#5d4037" stroke-width="2"/>
  
  <!-- Main earth hexagon -->
  <polygon points="100,40 140,70 140,130 100,160 60,130 60,70" 
           fill="url(#earthBg)" stroke="#388e3c" stroke-width="2"/>
  
  <!-- Inner hexagonal pattern -->
  <polygon points="100,55 125,75 125,125 100,145 75,125 75,75" 
           fill="none" stroke="#a5d6a7" stroke-width="2" opacity="0.8"/>
  
  <!-- Central earth symbol (mountain/crystal) -->
  <path d="M100 85 L90 105 L110 105 Z" fill="#c8e6c9" opacity="0.9">
    <animate attributeName="opacity" values="0.9;0.6;0.9" dur="3s" repeatCount="indefinite"/>
  </path>
  <path d="M100 90 L95 100 L105 100 Z" fill="#e8f5e8" opacity="0.8"/>
  
  <!-- Earth particles/crystals -->
  <circle cx="85" cy="90" r="2" fill="#81c784" opacity="0.8">
    <animate attributeName="opacity" values="0.8;0.4;0.8" dur="4s" repeatCount="indefinite"/>
  </circle>
  <circle cx="115" cy="110" r="1.5" fill="#81c784" opacity="0.7">
    <animate attributeName="opacity" values="0.7;0.3;0.7" dur="3.5s" repeatCount="indefinite"/>
  </circle>
  <circle cx="100" cy="120" r="1.8" fill="#c8e6c9" opacity="0.9">
    <animate attributeName="opacity" values="0.9;0.5;0.9" dur="4.2s" repeatCount="indefinite"/>
  </circle>
  
  <!-- Earth energy lines -->
  <path d="M80 80 Q100 75, 120 80" stroke="#a5d6a7" stroke-width="1.5" fill="none" opacity="0.6">
    <animate attributeName="opacity" values="0.6;0.2;0.6" dur="3s" repeatCount="indefinite"/>
  </path>
  <path d="M80 120 Q100 115, 120 120" stroke="#a5d6a7" stroke-width="1.5" fill="none" opacity="0.6">
    <animate attributeName="opacity" values="0.2;0.6;0.2" dur="3s" repeatCount="indefinite"/>
  </path>
  
  <!-- Small earth crystals -->
  <polygon points="90,70 94,74 94,78 90,82 86,78 86,74" fill="#81c784" opacity="0.7"/>
  <polygon points="110,70 114,74 114,78 110,82 106,78 106,74" fill="#81c784" opacity="0.7"/>
  <polygon points="85,125 89,129 89,133 85,137 81,133 81,129" fill="#81c784" opacity="0.7"/>
  <polygon points="115,125 119,129 119,133 115,137 111,133 111,129" fill="#81c784" opacity="0.7"/>
  
  <!-- Hexagonal gems around border -->
  <polygon points="100,50 108,58 108,68 100,76 92,68 92,58" fill="#66bb6a" opacity="0.7"/>
  <polygon points="130,75 138,83 138,93 130,101 122,93 122,83" fill="#66bb6a" opacity="0.7"/>
  <polygon points="130,125 138,117 138,107 130,99 122,107 122,117" fill="#66bb6a" opacity="0.7"/>
  <polygon points="100,150 108,142 108,132 100,124 92,132 92,142" fill="#66bb6a" opacity="0.7"/>
  <polygon points="70,125 78,117 78,107 70,99 62,107 62,117" fill="#66bb6a" opacity="0.7"/>
  <polygon points="70,75 78,83 78,93 70,101 62,93 62,83" fill="#66bb6a" opacity="0.7"/>
</svg>
