<svg width="400" height="300" viewBox="0 0 400 300" xmlns="http://www.w3.org/2000/svg">
  <!-- Fire World Background -->
  <defs>
    <radialGradient id="fireWorldBg" cx="50%" cy="50%" r="80%">
      <stop offset="0%" style="stop-color:#d32f2f;stop-opacity:1" />
      <stop offset="30%" style="stop-color:#f44336;stop-opacity:1" />
      <stop offset="60%" style="stop-color:#ff5722;stop-opacity:1" />
      <stop offset="100%" style="stop-color:#bf360c;stop-opacity:1" />
    </radialGradient>
    <filter id="fireWorldGlow">
      <feGaussianBlur stdDeviation="3" result="coloredBlur"/>
      <feMerge> 
        <feMergeNode in="coloredBlur"/>
        <feMergeNode in="SourceGraphic"/>
      </feMerge>
    </filter>
  </defs>
  
  <!-- Background -->
  <rect width="400" height="300" fill="url(#fireWorldBg)" rx="20" ry="20"/>
  
  <!-- Fire runes/symbols around the border -->
  <path d="M50 50 L60 35 L70 50 L65 60 L55 60 Z" fill="#ff8a65" opacity="0.4"/>
  <path d="M350 50 L340 35 L330 50 L335 60 L345 60 Z" fill="#ff8a65" opacity="0.4"/>
  <path d="M50 250 L60 235 L70 250 L65 260 L55 260 Z" fill="#ff8a65" opacity="0.4"/>
  <path d="M350 250 L340 235 L330 250 L335 260 L345 260 Z" fill="#ff8a65" opacity="0.4"/>
  
  <!-- Central fire pattern -->
  <circle cx="200" cy="150" r="100" fill="none" stroke="#ff5722" stroke-width="2" opacity="0.3"/>
  <circle cx="200" cy="150" r="80" fill="none" stroke="#ff7043" stroke-width="1.5" opacity="0.4"/>
  <circle cx="200" cy="150" r="60" fill="none" stroke="#ff8a65" stroke-width="1" opacity="0.5"/>
  
  <!-- Hexagonal flame pattern in center -->
  <polygon points="200,100 230,115 230,145 200,160 170,145 170,115" 
           fill="none" stroke="#ffab91" stroke-width="1" opacity="0.6"/>
  <polygon points="200,110 220,120 220,140 200,150 180,140 180,120" 
           fill="none" stroke="#ffccbc" stroke-width="1" opacity="0.7"/>
  
  <!-- Floating fire orbs -->
  <circle cx="100" cy="80" r="3" fill="#ff5722" opacity="0.7">
    <animate attributeName="cy" values="80;75;80" dur="2s" repeatCount="indefinite"/>
    <animate attributeName="opacity" values="0.7;0.4;0.7" dur="2s" repeatCount="indefinite"/>
  </circle>
  <circle cx="300" cy="100" r="2.5" fill="#ff7043" opacity="0.6">
    <animate attributeName="cy" values="100;95;100" dur="2.5s" repeatCount="indefinite"/>
    <animate attributeName="opacity" values="0.6;0.3;0.6" dur="2.5s" repeatCount="indefinite"/>
  </circle>
  <circle cx="120" cy="220" r="2" fill="#ff8a65" opacity="0.8">
    <animate attributeName="cy" values="220;215;220" dur="1.8s" repeatCount="indefinite"/>
    <animate attributeName="opacity" values="0.8;0.5;0.8" dur="1.8s" repeatCount="indefinite"/>
  </circle>
  <circle cx="280" cy="200" r="3.5" fill="#ff5722" opacity="0.5">
    <animate attributeName="cy" values="200;195;200" dur="3s" repeatCount="indefinite"/>
    <animate attributeName="opacity" values="0.5;0.2;0.5" dur="3s" repeatCount="indefinite"/>
  </circle>
  
  <!-- Corner flame decorative elements -->
  <path d="M20 20 Q30 10, 40 20 Q35 30, 25 25 Q15 30, 20 20" fill="#ff7043" opacity="0.5"/>
  <path d="M380 20 Q370 10, 360 20 Q365 30, 375 25 Q385 30, 380 20" fill="#ff7043" opacity="0.5"/>
  <path d="M20 280 Q30 270, 40 280 Q35 290, 25 285 Q15 290, 20 280" fill="#ff7043" opacity="0.5"/>
  <path d="M380 280 Q370 270, 360 280 Q365 290, 375 285 Q385 290, 380 280" fill="#ff7043" opacity="0.5"/>
  
  <!-- Fire particles -->
  <circle cx="150" cy="60" r="1" fill="#ffab91" opacity="0.6">
    <animateTransform attributeName="transform" type="translate" 
                      values="0,0;5,-10;0,0" dur="3s" repeatCount="indefinite"/>
    <animate attributeName="opacity" values="0.6;0.2;0.6" dur="3s" repeatCount="indefinite"/>
  </circle>
  <circle cx="250" cy="70" r="1.5" fill="#ff8a65" opacity="0.5">
    <animateTransform attributeName="transform" type="translate" 
                      values="0,0;-8,-5;0,0" dur="4s" repeatCount="indefinite"/>
    <animate attributeName="opacity" values="0.5;0.1;0.5" dur="4s" repeatCount="indefinite"/>
  </circle>
  
  <!-- Border -->
  <rect width="400" height="300" fill="none" stroke="#ff5722" stroke-width="3" rx="20" ry="20" opacity="0.8"/>
</svg>
