<svg width="200" height="200" viewBox="0 0 200 200" xmlns="http://www.w3.org/2000/svg">
  <!-- Fire Hexagon Icon -->
  <defs>
    <radialGradient id="fireBg" cx="50%" cy="50%" r="70%">
      <stop offset="0%" style="stop-color:#ff7043;stop-opacity:1" />
      <stop offset="30%" style="stop-color:#f4511e;stop-opacity:1" />
      <stop offset="70%" style="stop-color:#d84315;stop-opacity:1" />
      <stop offset="100%" style="stop-color:#bf360c;stop-opacity:1" />
    </radialGradient>
    <linearGradient id="fireFrame" x1="0%" y1="0%" x2="100%" y2="100%">
      <stop offset="0%" style="stop-color:#ffd54f;stop-opacity:1" />
      <stop offset="50%" style="stop-color:#ffb300;stop-opacity:1" />
      <stop offset="100%" style="stop-color:#ff8f00;stop-opacity:1" />
    </linearGradient>
    <filter id="fireGlow">
      <feGaussianBlur stdDeviation="3" result="coloredBlur"/>
      <feMerge> 
        <feMergeNode in="coloredBlur"/>
        <feMergeNode in="SourceGraphic"/>
      </feMerge>
    </filter>
  </defs>
  
  <!-- Outer hexagon frame -->
  <polygon points="100,20 160,60 160,140 100,180 40,140 40,60" 
           fill="url(#fireFrame)" stroke="#d4af37" stroke-width="3"/>
  
  <!-- Inner hexagon frame -->
  <polygon points="100,30 150,65 150,135 100,170 50,135 50,65" 
           fill="#8d6e63" stroke="#5d4037" stroke-width="2"/>
  
  <!-- Main fire hexagon -->
  <polygon points="100,40 140,70 140,130 100,160 60,130 60,70" 
           fill="url(#fireBg)" stroke="#d84315" stroke-width="2"/>
  
  <!-- Inner hexagonal pattern -->
  <polygon points="100,55 125,75 125,125 100,145 75,125 75,75" 
           fill="none" stroke="#ffab91" stroke-width="2" opacity="0.8"/>
  
  <!-- Central flame symbol -->
  <path d="M100 85 Q95 75, 90 85 Q95 95, 100 90 Q105 95, 110 85 Q105 75, 100 85" 
        fill="#ffccbc" opacity="0.9">
    <animate attributeName="opacity" values="0.9;0.6;0.9" dur="1.5s" repeatCount="indefinite"/>
  </path>
  
  <!-- Flame particles -->
  <circle cx="85" cy="90" r="2.5" fill="#ff8a65" opacity="0.8">
    <animate attributeName="cy" values="90;85;90" dur="2s" repeatCount="indefinite"/>
    <animate attributeName="opacity" values="0.8;0.4;0.8" dur="2s" repeatCount="indefinite"/>
  </circle>
  <circle cx="115" cy="110" r="2" fill="#ff8a65" opacity="0.7">
    <animate attributeName="cy" values="110;105;110" dur="1.8s" repeatCount="indefinite"/>
    <animate attributeName="opacity" values="0.7;0.3;0.7" dur="1.8s" repeatCount="indefinite"/>
  </circle>
  <circle cx="100" cy="120" r="1.5" fill="#ffccbc" opacity="0.9">
    <animate attributeName="cy" values="120;115;120" dur="2.2s" repeatCount="indefinite"/>
    <animate attributeName="opacity" values="0.9;0.5;0.9" dur="2.2s" repeatCount="indefinite"/>
  </circle>
  
  <!-- Flame wisps -->
  <path d="M95 70 Q90 65, 95 60 Q100 65, 95 70" fill="#ffab91" opacity="0.6">
    <animate attributeName="opacity" values="0.6;0.2;0.6" dur="1.5s" repeatCount="indefinite"/>
  </path>
  <path d="M105 70 Q110 65, 105 60 Q100 65, 105 70" fill="#ffab91" opacity="0.6">
    <animate attributeName="opacity" values="0.2;0.6;0.2" dur="1.5s" repeatCount="indefinite"/>
  </path>
  
  <!-- Hexagonal gems around border -->
  <polygon points="100,50 108,58 108,68 100,76 92,68 92,58" fill="#ff7043" opacity="0.7"/>
  <polygon points="130,75 138,83 138,93 130,101 122,93 122,83" fill="#ff7043" opacity="0.7"/>
  <polygon points="130,125 138,117 138,107 130,99 122,107 122,117" fill="#ff7043" opacity="0.7"/>
  <polygon points="100,150 108,142 108,132 100,124 92,132 92,142" fill="#ff7043" opacity="0.7"/>
  <polygon points="70,125 78,117 78,107 70,99 62,107 62,117" fill="#ff7043" opacity="0.7"/>
  <polygon points="70,75 78,83 78,93 70,101 62,93 62,83" fill="#ff7043" opacity="0.7"/>
</svg>
