<svg width="100" height="100" viewBox="0 0 100 100" xmlns="http://www.w3.org/2000/svg">
  <!-- Treasure Hexagon -->
  <defs>
    <radialGradient id="treasureGradient" cx="50%" cy="50%" r="50%">
      <stop offset="0%" style="stop-color:#ffd700;stop-opacity:1" />
      <stop offset="50%" style="stop-color:#ffed4e;stop-opacity:1" />
      <stop offset="100%" style="stop-color:#f57f17;stop-opacity:1" />
    </radialGradient>
    <filter id="treasureGlow">
      <feGaussianBlur stdDeviation="4" result="coloredBlur"/>
      <feMerge> 
        <feMergeNode in="coloredBlur"/>
        <feMergeNode in="SourceGraphic"/>
      </feMerge>
    </filter>
    <animateTransform attributeName="transform" type="rotate" 
                      values="0 50 50;360 50 50" dur="8s" repeatCount="indefinite"/>
  </defs>
  
  <!-- Hexagon shape -->
  <polygon points="50,5 85,27.5 85,72.5 50,95 15,72.5 15,27.5" 
           fill="url(#treasureGradient)" 
           stroke="#e65100" 
           stroke-width="3"
           filter="url(#treasureGlow)"/>
  
  <!-- Diamond/gem symbol -->
  <path d="M50 20 L35 35 L35 50 L50 70 L65 50 L65 35 Z" 
        fill="#fff3e0" 
        opacity="0.9"/>
  <path d="M50 20 L42 35 L50 45 L58 35 Z" 
        fill="#ffffff" 
        opacity="0.8"/>
  <path d="M35 35 L50 45 L65 35 L50 30 Z" 
        fill="#ffe0b2" 
        opacity="0.7"/>
  <path d="M35 50 L50 70 L65 50 L50 45 Z" 
        fill="#ffcc02" 
        opacity="0.8"/>
  
  <!-- Sparkles -->
  <circle cx="25" cy="25" r="2" fill="#ffffff" opacity="0.8">
    <animate attributeName="opacity" values="0.8;0.3;0.8" dur="2s" repeatCount="indefinite"/>
  </circle>
  <circle cx="75" cy="30" r="1.5" fill="#ffffff" opacity="0.6">
    <animate attributeName="opacity" values="0.6;0.2;0.6" dur="3s" repeatCount="indefinite"/>
  </circle>
  <circle cx="80" cy="70" r="2" fill="#ffffff" opacity="0.7">
    <animate attributeName="opacity" values="0.7;0.2;0.7" dur="2.5s" repeatCount="indefinite"/>
  </circle>
  <circle cx="20" cy="75" r="1" fill="#ffffff" opacity="0.5">
    <animate attributeName="opacity" values="0.5;0.1;0.5" dur="4s" repeatCount="indefinite"/>
  </circle>
</svg>
