<svg width="200" height="200" viewBox="0 0 200 200" xmlns="http://www.w3.org/2000/svg">
  <!-- Water Hexagon Icon -->
  <defs>
    <radialGradient id="waterBg" cx="50%" cy="50%" r="70%">
      <stop offset="0%" style="stop-color:#4fc3f7;stop-opacity:1" />
      <stop offset="30%" style="stop-color:#29b6f6;stop-opacity:1" />
      <stop offset="70%" style="stop-color:#0288d1;stop-opacity:1" />
      <stop offset="100%" style="stop-color:#01579b;stop-opacity:1" />
    </radialGradient>
    <linearGradient id="waterFrame" x1="0%" y1="0%" x2="100%" y2="100%">
      <stop offset="0%" style="stop-color:#ffd54f;stop-opacity:1" />
      <stop offset="50%" style="stop-color:#ffb300;stop-opacity:1" />
      <stop offset="100%" style="stop-color:#ff8f00;stop-opacity:1" />
    </linearGradient>
    <filter id="waterGlow">
      <feGaussianBlur stdDeviation="3" result="coloredBlur"/>
      <feMerge> 
        <feMergeNode in="coloredBlur"/>
        <feMergeNode in="SourceGraphic"/>
      </feMerge>
    </filter>
  </defs>
  
  <!-- Outer hexagon frame -->
  <polygon points="100,20 160,60 160,140 100,180 40,140 40,60" 
           fill="url(#waterFrame)" stroke="#d4af37" stroke-width="3"/>
  
  <!-- Inner hexagon frame -->
  <polygon points="100,30 150,65 150,135 100,170 50,135 50,65" 
           fill="#8d6e63" stroke="#5d4037" stroke-width="2"/>
  
  <!-- Main water hexagon -->
  <polygon points="100,40 140,70 140,130 100,160 60,130 60,70" 
           fill="url(#waterBg)" stroke="#0277bd" stroke-width="2"/>
  
  <!-- Inner hexagonal pattern -->
  <polygon points="100,55 125,75 125,125 100,145 75,125 75,75" 
           fill="none" stroke="#81d4fa" stroke-width="2" opacity="0.8"/>
  
  <!-- Central water symbol -->
  <path d="M100 80 Q90 85, 85 95 Q90 105, 100 100 Q110 105, 115 95 Q110 85, 100 80" 
        fill="#e1f5fe" opacity="0.9">
    <animate attributeName="opacity" values="0.9;0.6;0.9" dur="2s" repeatCount="indefinite"/>
  </path>
  
  <!-- Water droplets -->
  <circle cx="85" cy="90" r="3" fill="#b3e5fc" opacity="0.8">
    <animate attributeName="cy" values="90;85;90" dur="3s" repeatCount="indefinite"/>
  </circle>
  <circle cx="115" cy="110" r="2.5" fill="#b3e5fc" opacity="0.7">
    <animate attributeName="cy" values="110;105;110" dur="2.5s" repeatCount="indefinite"/>
  </circle>
  <circle cx="100" cy="120" r="2" fill="#e1f5fe" opacity="0.9">
    <animate attributeName="cy" values="120;115;120" dur="2.8s" repeatCount="indefinite"/>
  </circle>
  
  <!-- Hexagonal gems around border -->
  <polygon points="100,50 108,58 108,68 100,76 92,68 92,58" fill="#4dd0e1" opacity="0.7"/>
  <polygon points="130,75 138,83 138,93 130,101 122,93 122,83" fill="#4dd0e1" opacity="0.7"/>
  <polygon points="130,125 138,117 138,107 130,99 122,107 122,117" fill="#4dd0e1" opacity="0.7"/>
  <polygon points="100,150 108,142 108,132 100,124 92,132 92,142" fill="#4dd0e1" opacity="0.7"/>
  <polygon points="70,125 78,117 78,107 70,99 62,107 62,117" fill="#4dd0e1" opacity="0.7"/>
  <polygon points="70,75 78,83 78,93 70,101 62,93 62,83" fill="#4dd0e1" opacity="0.7"/>
</svg>
