<svg width="100" height="100" viewBox="0 0 100 100" xmlns="http://www.w3.org/2000/svg">
  <!-- Water Hexagon -->
  <defs>
    <radialGradient id="waterGradient" cx="50%" cy="50%" r="50%">
      <stop offset="0%" style="stop-color:#4fc3f7;stop-opacity:1" />
      <stop offset="50%" style="stop-color:#29b6f6;stop-opacity:1" />
      <stop offset="100%" style="stop-color:#0277bd;stop-opacity:1" />
    </radialGradient>
    <filter id="waterGlow">
      <feGaussianBlur stdDeviation="3" result="coloredBlur"/>
      <feMerge> 
        <feMergeNode in="coloredBlur"/>
        <feMergeNode in="SourceGraphic"/>
      </feMerge>
    </filter>
  </defs>
  
  <!-- Hexagon shape -->
  <polygon points="50,5 85,27.5 85,72.5 50,95 15,72.5 15,27.5" 
           fill="url(#waterGradient)" 
           stroke="#01579b" 
           stroke-width="2"
           filter="url(#waterGlow)"/>
  
  <!-- Water droplet symbol -->
  <path d="M50 25 C45 30, 40 40, 40 50 C40 60, 45 65, 50 65 C55 65, 60 60, 60 50 C60 40, 55 30, 50 25 Z" 
        fill="#e1f5fe" 
        opacity="0.8"/>
  <circle cx="50" cy="50" r="8" fill="#ffffff" opacity="0.6"/>
  
  <!-- Water waves -->
  <path d="M25 70 Q35 65, 45 70 T65 70 T85 70" 
        stroke="#e1f5fe" 
        stroke-width="2" 
        fill="none" 
        opacity="0.7"/>
  <path d="M25 75 Q35 70, 45 75 T65 75 T85 75" 
        stroke="#e1f5fe" 
        stroke-width="2" 
        fill="none" 
        opacity="0.5"/>
</svg>
